# xmcd CD Database Entry
#
# Track frame offsets:
# 182
# 15967
# 31042
# 46297
# 60152
# 74730
# 89720
# 103655
# 119517
# 133427
# 146990
# 161047
# 178765
# 194455
# 209380
# 221387
# 236560
# 252327
#
# Disc length: 3610 seconds
#
# Revision: 2
# Processed by: cddbd v1.4PL0 Copyright (c) Steve Scherf et al.
# Submitted via: tcd 2.0b
#
DISCID=120e1812
DTITLE=Edith Piaf/ Stars de Légendre
DYEAR=1900
DGENRE=
TTITLE0=Mon Légionnaire
TTITLE1=Les mômes de la cloche
TTITLE2=Fais-moi valser
TTITLE3=La Jaca de Cézigue
TTITLE4=Mon amant de la coloniale
TTITLE5=Y'avait du soleil
TTITLE6=J'entends la sirène
TTITLE7=Ne m'écris pas
TTITLE8=Entre St'Ouen and Clignancourt
TTITLE9=Un jeune homme chantait
TTITLE10=La jolie Julie
TTITLE11=C'était un jour de fête
TTITLE12=Va danser
TTITLE13=J'ai dansé avec l'amour
TTITLE14=Partance
TTITLE15=C'est lui que mon coeur a choisi
TTITLE16=Escale
TTITLE17=Le disque usé
EXTD=
EXTT0=\t
EXTT1=
EXTT2=
EXTT3=
EXTT4=
EXTT5=
EXTT6=
EXTT7=
EXTT8=
EXTT9=
EXTT10=
EXTT11=
EXTT12=
EXTT13=
EXTT14=
EXTT15=
EXTT16=
EXTT17=
PLAYORDER=
